<?xml version="1.0" encoding="UTF-8"?>
<svg id="Layer_1" xmlns="http://www.w3.org/2000/svg" version="1.1" viewBox="0 0 255.12 141.73">
  <!-- Generator: Adobe Illustrator 29.6.1, SVG Export Plug-In . SVG Version: 2.1.1 Build 9)  -->
  <defs>
    <style>
      .st0 {
        fill-rule: evenodd;
      }
    </style>
  </defs>
  <path d="M230.49,57.36c-.03-.4-.05-.8-.12-1.2-.11-.8-.31-1.6-.6-2.37-.28-.78-.67-1.52-1.13-2.22-.45-.71-1.01-1.35-1.62-1.93-1.21-1.19-2.7-2.06-4.27-2.7-1.58-.61-3.25-1.01-4.94-1.16-.42-.03-.85-.08-1.27-.08l-.64-.02h-.64c-.43,0-.85.03-1.28.05-.43.01-.85.06-1.28.1-.85.09-1.7.2-2.56.36-.43.07-.84.17-1.26.25-.44.09-.84.2-1.27.3-1.69.39-3.35.94-5,1.52-1.64.62-3.27,1.3-4.87,2.05-1.62.73-3.19,1.55-4.77,2.38-1.57.85-3.14,1.72-4.69,2.62-6.23,3.58-12.57,8.37-19.02,11.52-3.22,1.57-10.2,5.17-14.72,6.07-4.44.88-10.56,1.23-15.28-.64-3.04-1.21-6.03-3.49-8.08-5.86-1.02-1.19-1.84-2.55-2.42-4-.46-1.19-.8-2.45-.96-3.71l.11-.04.45-.17c.15-.06.3-.12.45-.18l.47-.21c1.25-.56,2.47-1.21,3.63-2.03l.44-.31.42-.33c.29-.21.55-.47.83-.71l.1-.09c.05-.05.04-.04.06-.06l.05-.05.18-.19c.12-.13.24-.24.37-.4l.37-.45.33-.47c.41-.64.75-1.34.94-2.1.19-.76.24-1.58.06-2.38-.19-.79-.59-1.59-1.3-2.12-.69-.56-1.65-.74-2.5-.6-.86.16-1.62.56-2.28,1.06-.66.5-1.23,1.1-1.73,1.73-.26.31-.49.65-.72.98-.12.16-.22.34-.33.51l-.16.26-.08.13-.04.06s-.04.08-.05.09l-.28.52c-.09.17-.18.38-.27.57-.09.2-.17.39-.24.59-.07.2-.15.39-.22.59-.26.8-.46,1.62-.6,2.45-.08.58-.15,1.17-.17,1.77-.34.08-.68.15-1.02.21-2.34.43-4.62.54-6.75.48-2.09-.06-4.7-.28-6.48-.65-.44-8.48-5.06-13.37-10.19-11.32-1.84.73-2.68,3.08-2.3,4.48.55,2.07,2.9,4.16,3.39,4.57.98.82,2.56,1.63,4.04,2.37.59.3,1.22.58,1.88.85-.06,5.6-2.98,15.66-11.63,28.32-15.5,22.67-35.05,25.47-36.03,15.26-.42-4.44,1.22-10.32,5.52-13.95,2.25-1.82,4.75-2.17,7.45-.88,2.54,1.21,11.09,4.1,9.97-2.48-.54-3.14-.16-3.21.53-3.72,1.26-.94.72-2.34-1.19-3.21.9-.38,3.52-.14,3.45-1.68-.05-1.09-1.59-2.41-1.22-3.36.09-.23.31-.42.73-.55.06-.26,2.59-.03,3.39-.53,1.16-.73.99-1.26.2-2.3-1.84-2.44-6.32-7.71-6.15-10.55,1.43.36,2.69.17,4-.47-1.24.6-2.6.16-3.91-.36.47-3.42.51-9.42-.29-12.92-.08-11.32-7.51-23.15-35.43-16.25C20.13,35.62.61,64.79,10.96,82.8c8.15,13.44,25.54,15.16,39.13,4.1,9.17-7.54,10.02-18.45,6.32-24.5-1.06-1.73-2.82-2.99-5.22-3.44-2.94-.56-6.42,1.05-8.08,3.77,0,0,3.76-4,8.09-3.17,2.66.51,5.18,2.28,6.05,7.78.66,4.19-.72,8.4-3.4,12.06-6.44,8.8-20.43,14.43-31.78,9.03-16.07-7.65-9.93-49.15,33.85-59.41,0,0,23.09-3.16,22.23,13.14-.86,16.3-24.37,52.21-21.68,65.89,2.7,13.58,22.86,5.73,43.03-18.81,9.06-11.08,12.1-22.14,12.34-30.19,1.76.42,4.35.97,6.4,1.05,2.3.08,4.77-.09,7.29-.73.19-.05.78-.11.98-.17.1,1.29.78,2.69,1.17,3.95.55,1.69,1.53,3.3,2.63,4.77,1.11,1.46,2.26,2.31,3.58,3.65,4.35,4.4,13.46,4.4,13.91,4.4,3.58,0,9.03-1,13.81-2.93,3.45-1.39,5.44-2.74,8.71-4.45,6.51-3.46,12.82-8.05,18.86-11.82,3.02-1.9,6.07-3.67,9.18-5.21,1.55-.79,3.14-1.45,4.73-2.09,1.6-.59,3.2-1.16,4.83-1.56.41-.1.82-.23,1.21-.3.41-.08.84-.18,1.24-.24.81-.14,1.62-.26,2.44-.31.41-.03.81-.06,1.22-.06.41,0,.81-.02,1.21,0l.6.02.6.05c.4.02.79.09,1.18.14,1.57.22,3.07.66,4.45,1.28,1.37.64,2.6,1.48,3.61,2.49,2.03,2.02,3.03,4.79,2.94,7.5l-.02.51-.05.51-.02.25c0,.05,0,0,0,.03v.07s-.04.13-.04.13l-.09.53c-.03.17-.08.31-.11.46-.04.15-.07.3-.13.45l-.15.46-.19.44c-.27.57-.6,1.11-1.01,1.57-.41.46-.88.85-1.4,1.16-1.04.63-2.27.9-3.45.85-.65-.03-1.28-.18-1.87-.41.02-.06.05-.11.07-.16.32-.83.53-1.75.57-2.73.01-.49-.02-.99-.12-1.5-.1-.52-.28-1.01-.56-1.49-.29-.47-.69-.91-1.25-1.17-.28-.11-.6-.2-.92-.17-.16,0-.32.05-.48.1-.08.02-.15.07-.22.11-.07.04-.15.08-.21.13l-.19.16c-.06.06-.11.13-.16.19-.11.13-.18.27-.26.42-.14.29-.22.6-.26.93-.03.18-.02.3-.03.45v.11s0,.05,0,.05c0,.03,0,.01,0,.08l.02.23c.01.15.03.3.04.46.03.15.06.3.09.46.24,1.22.9,2.43,1.91,3.32.39.35.83.65,1.3.89-.19.38-.4.74-.64,1.07-2,2.73-6.18,3.79-6.07,3.77.84-.13,1.88-.37,3-.92,1.11-.55,2.29-1.42,3.25-2.72.25-.33.48-.7.69-1.08.69.33,1.43.55,2.22.64,1.41.16,2.93-.07,4.27-.79.67-.36,1.29-.82,1.84-1.37.55-.55.99-1.2,1.36-1.88l.26-.53.22-.54c.07-.18.13-.37.19-.57.06-.19.12-.4.16-.58l.11-.53.03-.13v-.07s.03-.11.03-.11l.04-.29.07-.58.04-.59c.02-.2.02-.39.02-.59,0-.2,0-.4,0-.59ZM107.53,55.64c-1.42-.58-5.98-2.62-6.79-5.15-.67-2.08,1.11-4.51,4.13-3.08,2.44,1.15,3.7,4.85,3.7,8.62-.36-.13-.7-.26-1.03-.39ZM127.68,56.68c0-.39.03-.78.06-1.16.07-.76.21-1.52.4-2.26.11-.36.21-.74.35-1.07.07-.17.12-.33.21-.52l.26-.54s.01-.02.02-.05l.04-.06.07-.13.14-.25c.09-.16.18-.34.28-.49.2-.32.4-.64.63-.93.21-.31.46-.58.69-.87.26-.26.51-.52.79-.74.55-.44,1.17-.79,1.81-.91.64-.11,1.29,0,1.78.39.13.08.23.2.34.31.05.06.1.13.14.19.05.06.09.13.13.2.17.27.27.58.35.89.13.63.08,1.3-.1,1.93-.18.63-.5,1.22-.89,1.74l-.3.38-.33.34c-.1.11-.24.23-.37.35l-.2.17-.05.05s-.05.05-.03.02l-.1.07c-.27.2-.52.41-.8.58l-.41.27-.43.24c-1.13.64-2.34,1.14-3.52,1.54l-.44.15c-.15.05-.31.09-.46.14l-.05.02ZM219.84,65.37c-.39-.18-.76-.4-1.1-.66-.88-.71-1.51-1.7-1.77-2.76l-.1-.4c-.02-.14-.04-.27-.06-.41l-.03-.2s0-.02,0-.03v-.16c0-.14-.02-.3,0-.41.03-.48.21-.98.55-1.25.33-.29.82-.32,1.25-.15.43.18.79.53,1.05.92.53.83.7,1.79.71,2.72,0,.93-.17,1.82-.45,2.64-.02.05-.04.1-.06.15Z"/>
  <path d="M120.92,65.7c-2.21-.34-4.27,1.18-4.6,3.49-.33,2.31,1.21,4.48,3.42,4.82,2.21.34,4.19-1.3,4.51-3.61.33-2.31-1.13-4.36-3.34-4.7Z"/>
  <path d="M115.56,78.79c.52-.25,1.22-.23,2.09.07.87.29,1.67.75,2.39,1.35.72.61,1.28,1.31,1.69,2.12.41.81.43,1.59.08,2.36-.3.68-.93,1.76-1.87,3.26-.95,1.5-1.96,3.2-3.06,5.11-1.1,1.91-2.2,3.88-3.32,5.91-1.12,2.03-2.02,3.89-2.7,5.57-.68,1.69-1.07,3.07-1.19,4.14-.11,1.08.3,1.63,1.25,1.66l.87-.02c1.88-.51,3.62-1.37,5.23-2.57,1.61-1.2,3.12-2.56,4.53-4.07,1.42-1.51,2.75-3.09,4.01-4.74,1.26-1.65,2.42-3.2,3.5-4.65.2-.24.47-.38.78-.41.31-.03.58.01.79.13.21.12.35.3.4.57.06.26-.07.56-.38.9-2.15,3.15-4.35,6.07-6.62,8.77-2.26,2.69-4.98,5.2-8.14,7.5-.42.29-.91.64-1.48,1.03-.57.39-1.22.75-1.95,1.08-.73.33-1.52.6-2.39.83-.86.23-1.74.36-2.63.37-1.1-.03-2-.3-2.69-.81-.69-.51-1.2-1.19-1.53-2.05-.33-.85-.48-1.83-.45-2.93s.25-2.27.65-3.53c.49-1.73,1.27-3.78,2.33-6.14,1.06-2.36,2.2-4.78,3.41-7.27,1.22-2.48,2.41-4.92,3.57-7.31,1.16-2.39,2.1-4.47,2.8-6.25Z"/>
  <path d="M157.89,105.52c-1.02,1.57-2.14,3.09-3.36,4.54-1.22,1.46-2.52,2.71-3.9,3.77-1.38,1.05-2.72,1.59-4.04,1.62-.74.01-1.48-.11-2.2-.39-.73-.27-1.36-.69-1.89-1.25-.53-.56-.96-1.3-1.29-2.2-.32-.9-.47-1.97-.45-3.22.02-1.24.15-2.48.39-3.7.24-1.22.56-2.52.95-3.89.39-1.37.88-2.86,1.46-4.47.58-1.61,1.23-3.4,1.94-5.38.46-1.25.81-2.39,1.05-3.43.24-1.03.27-1.78.09-2.26-.18-.47-.64-.55-1.38-.22-.74.33-1.86,1.22-3.36,2.68-1.67,1.71-3.15,3.33-4.44,4.89-1.28,1.56-2.61,3.28-3.97,5.17-1.04,2.79-1.91,5.62-2.6,8.47-.69,2.86-1.12,5.86-1.28,9.02,0,.34-.23.43-.72.3-.48-.13-1.02-.37-1.62-.72-.6-.35-1.14-.75-1.63-1.22s-.76-.89-.81-1.27c.08-2.82.43-5.59,1.06-8.3.63-2.71,1.36-5.43,2.18-8.14.83-2.72,1.69-5.42,2.61-8.11.91-2.69,1.72-5.41,2.41-8.15.43-.25,1.01-.22,1.74.07.73.3,1.42.75,2.09,1.36.67.61,1.2,1.32,1.61,2.12.41.81.51,1.59.3,2.36-.12.53-.29,1.03-.5,1.52-.21.48-.44.99-.69,1.52.9-1.12,1.86-2.21,2.89-3.28,1.03-1.07,2.08-2.03,3.16-2.89,1.08-.86,2.18-1.56,3.31-2.11,1.13-.55,2.27-1,3.46-1,3.58,0,4.4,2.93,4.36,3.79-.03.71-.09,1.41-.26,1.94-1.03,3.27-1.99,6.02-2.87,8.26-.88,2.24-1.65,4.24-2.32,5.99-.67,1.76-1.21,3.44-1.61,5.05-.41,1.61-.66,3.42-.75,5.43,0,.14.03.31.07.5.05.19.15.36.3.5s.39.21.69.2.7-.13,1.17-.38c1.25-.69,2.75-1.89,4.49-3.6,1.74-1.71,3.44-3.96,5.09-6.76.64-1.06,1.22-2.11,1.75-3.15.53-1.04,1.05-2.04,1.55-3,.13-.24.31-.37.55-.41.24-.03.46.03.66.17s.33.33.4.57c.07.24.02.53-.15.86l-3.3,6.3c-.59,1.06-1.4,2.38-2.42,3.95Z"/>
  <path class="st0" d="M132.53,40.21l-.98-3.63c.5-.02.9-.44.9-.95s-.42-.95-.95-.95-.94.43-.94.95c0,.43.28.78.66.9,0,0-.01.01-.02.02,0,0-.02.01-.03.02-.04.03-.09.07-.14.1,0,0-.02.01-.02.02-.05.03-.09.07-.15.1-.01,0-.02.01-.03.02-.13.08-.27.16-.42.23-1.03.47-2.66.54-4.14-2.2-.06-.11-.11-.22-.17-.34-.03-.06-.06-.11-.09-.17-.04-.08-.08-.17-.12-.26.6,0,1.09-.49,1.09-1.09s-.49-1.09-1.09-1.09-1.09.49-1.09,1.09c0,.46.28.85.67,1.01-.01,0-.02.02-.04.02-.02.01-.04.02-.06.04-.03.02-.06.04-.09.06-.02.01-.05.03-.07.04-.03.02-.06.04-.1.06-.03.02-.06.03-.09.05-.03.02-.07.04-.1.06-.03.02-.07.04-.1.05-1.28.67-3.62,1.31-5.24-1.62-.02-.04-.05-.09-.07-.14-.05-.1-.1-.21-.16-.31-.02-.05-.05-.1-.07-.15-.07-.15-.13-.3-.19-.46-.02-.05-.04-.1-.06-.15-.06-.15-.11-.31-.16-.47-.01-.03-.02-.07-.03-.1-.02-.07-.04-.14-.06-.21.77-.14,1.41-.75,1.52-1.58.14-1.03-.57-1.98-1.58-2.12-1.02-.14-1.96.57-2.1,1.6-.14,1,.54,1.93,1.52,2.1-.01.04-.02.08-.03.11-.02.07-.05.15-.07.22-.04.14-.09.27-.14.4-.02.06-.04.13-.07.18-1.5,3.92-4,3.51-5.47,2.83-.06-.03-.11-.05-.17-.08-.03-.01-.05-.03-.08-.04-.06-.03-.11-.06-.16-.09-.02-.01-.04-.02-.06-.03-.14-.08-.27-.16-.37-.23,0,0-.01,0-.02-.01-.01,0-.02-.02-.04-.03.39-.17.67-.56.67-1.01,0-.6-.49-1.09-1.09-1.09s-1.09.49-1.09,1.09.49,1.09,1.09,1.09c0,0,0,0,0,0-1.5,3.38-3.24,3.48-4.37,3.03-.27-.11-.51-.24-.7-.37,0,0,0,0,0,0-.1-.07-.18-.13-.25-.19.38-.12.66-.48.66-.9,0-.52-.42-.95-.95-.95s-.95.43-.95.95.4.93.9.95l-.11.41s0,0,0,0l-.84,3.12c-.39.32-.67.67-.85,1.02,0,0,0,0,0,0-.01.02-.02.05-.03.07-.01.03-.02.05-.03.08-.02.04-.03.09-.05.13-.01.03-.02.06-.03.1-.01.04-.02.09-.03.13,0,.03-.01.06-.02.09-.01.07-.02.15-.02.22h0c0,.06,0,.1.02.15,0,.02,0,.03.01.05,0,.02.01.04.02.06,0,0,0,0,0,0,.26.69,1.58,1.19,3.54,1.81,1.96.63,6.35,1.56,11.4,1.56,4.73,0,8.55-.82,10.83-1.41,2.34-.52,3.87-1.2,4.16-1.95,0,0,0,0,0,0,0-.02.01-.04.02-.06,0-.02.01-.03.01-.05.01-.05.02-.1.02-.14h0c0-.62-.33-1.2-.94-1.74ZM130.57,43.19c-2.18.77-6.7,1.82-12.09,1.82-4.99,0-9.52-.82-11.82-1.65-1.24-.45-2.89-1.11-2.29-1.83,2.58-1.63,7.92-2.75,14.09-2.75s12.32,1.2,14.37,2.83c.32.72-1.27,1.26-2.25,1.58Z"/>
  <path d="M242,81.44c-10.69,10.48-16.98,10.28-25.72,11.04-.01-.12-9.19-.72-12.41-2.79.91-2.39,2.68-8.15,1.72-10.16-.5-1.06-1.49-1.58-2.31-1.61-1.36-.04-3.76.94-4.22,5.1-.22,1.98.98,4.87,2.75,7.21-.34,1.13-2.07,4.49-2.17,4.67-.79,1.41-1.68,2.94-2.63,4.63-.95,1.69-2.19,3.26-3.31,4.8-1.12,1.55-2.33,2.92-3.62,4.14-1.29,1.21-2.67,2.05-4.15,2.5h-.78c-.48-.06-.76-.35-.86-.87-.1-.52-.09-1.19.03-2.02.12-.82.35-1.74.68-2.75.34-1.01.69-2.03,1.08-3.07.38-1.03.76-2.05,1.14-3.03.38-.99.7-1.83.97-2.54.23-.75.15-1.53-.23-2.34-.38-.81-.76-1.56-1.4-2.18-.64-.62-1.07-1.05-1.8-1.39-.73-.34-1.31-.39-1.75-.16-.32.45-.8,2.55-1.04,3.31-.41,1.31-1.03,2.78-1.64,4.09-.48,1.04-.93,2-1.85,3.31-.92,1.31-1.9,2.56-2.93,3.76-1.03,1.19-2.05,2.23-3.05,3.12-1,.89-1.85,1.42-2.55,1.6-1.47.36-2.55.28-3.24-.25-.69-.53-1.13-1.28-1.33-2.25-.2-.97-.23-2.02-.09-3.15.14-1.13.33-2.1.55-2.9.32-1.18.75-2.46,1.31-3.84.56-1.39,1.21-2.77,1.96-4.16.75-1.38,1.59-3.19,2.51-4.48.92-1.29,3.73-5.97,6.93-7.3.93-.38,2.41.02,2.93.54.51.53.88,1.13,1.11,1.82.23.69.35,1.32.48,2.04.15.82.11,1.41.15,1.89.03.38.02,1.11.07,1.19.14.22.4.16.77,0,.22-.1.48-.2.7-.39.22-.18.33-.44.33-.77.06-.99.05-1.99-.03-3.01-.07-1.02-.26-1.96-.55-2.84-.29-.88-.7-1.64-1.24-2.28-.53-.64-1.23-1.11-2.09-1.4-6.04-1.05-12.56,6.63-14.12,8.39-1.56,1.75-2.93,3.6-4.12,5.55-1.19,1.95-2.17,3.91-2.92,5.88-.76,1.97-1.26,3.79-1.49,5.44-.14.85-.19,1.91-.14,3.19.05,1.27.3,2.51.76,3.69.46,1.19,1.19,2.22,2.2,3.11,1,.89,2.43,1.38,4.29,1.5,1.03.11,2.1-.11,3.18-.64,1.09-.53,2.15-1.24,3.2-2.12,1.05-.88,2.06-1.89,3.05-3.01.99-1.12,1.92-2.27,2.8-3.44-.32,1.18-.47,2.33-.46,3.47,0,1.13.2,2.15.58,3.05.38.9.94,1.64,1.69,2.21.75.58,1.73.92,2.94,1.02.78.06,1.5-.02,2.17-.22.67-.21,1.3-.47,1.89-.79.59-.32,1.11-.67,1.57-1.04.46-.37.84-.7,1.14-.98,1.22-1.07,2.35-2.26,3.38-3.57,1.03-1.31,2.01-2.67,2.93-4.07.92-1.41,1.81-2.86,2.65-4.36.84-1.5,1.6-2.63,2.64-4.63.13-.23,2.1-4.5,2.18-4.72,3.49,2.2,11.54,3.23,13.02,3.19,8.65-.08,18.72-2.57,26.94-12.16,2.08-2.43,6.84-8.41,7.54-16.73-2.28,7.99-4.87,11.44-8.71,16ZM202.54,89.09c-3.27-3.27-2.52-9.62.53-9.49,3.08,0,.63,7.91-.53,9.49Z"/>
</svg>